<svg width="1084" height="1497" viewBox="0 0 1084 1497" fill="none" xmlns="http://www.w3.org/2000/svg">
<path d="M137.366 439.023L237.287 686.336L0.000453686 744.09L137.366 439.023Z" fill="#001D3F"/>
<path d="M388.908 835.132L302.77 979.744L185 868.293L388.908 835.132Z" fill="#48008F"/>
<path d="M678.193 638.884L565.493 730.801L542.241 587.242L678.193 638.884Z" fill="#810000"/>
<path d="M786.005 507.5L1083.01 536.5L911.5 799.5L786.005 507.5Z" fill="#550033"/>
<path d="M644 0.0636998L762.5 321.064L357.5 103.064L644 0.0636998Z" fill="#403552"/>
<path d="M401.996 1109.75L538.469 1119.4L490.54 1153.35L477.553 1196.63L401.996 1109.75Z" fill="black"/>
<circle cx="231" cy="1479" r="18" fill="black"/>
<circle cx="127.5" cy="1212.5" r="24.5" fill="black"/>
<circle cx="831" cy="1045" r="36" fill="black"/>
</svg>
