<svg width="741" height="595" viewBox="0 0 741 595" fill="none" xmlns="http://www.w3.org/2000/svg">
<path d="M363.393 594C388.798 594 409.393 573.405 409.393 548C409.393 522.595 388.798 502 363.393 502C337.988 502 317.393 522.595 317.393 548C317.393 573.405 337.988 594 363.393 594Z" fill="#141314"/>
<path d="M638.199 591.416C663.934 583.687 691.293 575.628 711.703 557.255C729.94 540.836 742.253 515.766 734.697 491.143C727.157 466.571 704.573 450.187 681.256 442.038C668.031 437.416 654.195 434.852 640.364 432.837C625.329 430.648 610.228 428.854 595.134 427.127C534.016 420.137 472.668 415.867 411.09 414.316C380.706 413.551 350.327 413.57 319.938 414.011C292.798 414.405 264.216 414.395 239.039 402.86C219.46 393.89 201.691 377.571 196.235 356.127C189.938 331.372 201.553 306.163 218.215 288.235C226.998 278.784 237.263 270.831 247.852 263.517C259.339 255.583 271.227 248.211 283.372 241.329C307.293 227.782 332.302 216.252 358.139 206.861C370.885 202.226 383.82 198.228 396.867 194.539C407.884 191.424 418.935 188.305 429.583 184.062C450.166 175.858 469.744 161.962 474.977 139.18C479.937 117.589 471.574 94.1495 456.912 78.1096C439.949 59.5526 414.373 51.4178 389.852 50.1016C362.324 48.624 335.43 55.5137 309.555 64.2575C281.959 73.5835 254.957 84.3067 226.777 91.8607C198.833 99.3441 170.348 104.639 141.581 107.697C127.499 109.197 112.991 110.89 98.8251 109.742C86.9526 108.78 75.1408 105.288 66.391 96.8624C58.8884 89.6376 54.4191 79.7084 55.9557 69.23C56.2348 67.3268 59.1259 68.1359 58.8485 70.0275C56.9781 82.7827 65.6484 94.5361 76.3327 100.557C88.6809 107.515 103.707 107.525 117.454 106.729C147.263 104.928 176.871 100.648 205.969 93.9332C234.561 87.4026 262.133 78.0669 289.673 68.0941C315.829 58.6226 342.57 49.3783 370.513 47.3268C394.759 45.5468 420.265 49.0791 441.387 61.75C459.951 72.886 473.602 91.4572 477.952 112.768C482.202 133.593 476.315 154.553 460.552 169.085C444.23 184.132 421.851 190.564 400.995 196.489C374.543 204.003 348.658 212.787 323.603 224.192C298.206 235.72 273.85 249.413 250.803 265.12C228.556 280.322 206.602 299.451 199.566 326.571C196.289 339.204 196.894 352.603 202.378 364.536C207.254 375.146 215.284 384.071 224.639 390.954C246.96 407.379 275.092 410.751 302.054 411.087C332.335 411.463 362.617 410.441 392.909 410.939C454.641 411.952 516.247 415.709 577.727 422.211C593.133 423.842 608.518 425.644 623.885 427.618C637.706 429.394 651.575 431.159 665.163 434.313C689.326 439.921 712.837 450.705 727.855 471.191C734.52 480.071 738.65 490.594 739.802 501.637C740.854 513.161 738.032 524.706 732.822 534.958C721.29 557.648 699.688 572.081 676.749 581.562C664.462 586.641 651.717 590.488 638.997 594.309C637.144 594.865 636.352 591.971 638.2 591.416L638.199 591.416Z" fill="#F2F2F2"/>
<path d="M57.8928 93.5C71.1477 93.5 81.8928 82.7548 81.8928 69.5C81.8928 56.2452 71.1477 45.5 57.8928 45.5C44.638 45.5 33.8928 56.2452 33.8928 69.5C33.8928 82.7548 44.638 93.5 57.8928 93.5Z" fill="#F2F2F2"/>
<path d="M224.393 139C237.648 139 248.393 128.255 248.393 115C248.393 101.745 237.648 91 224.393 91C211.138 91 200.393 101.745 200.393 115C200.393 128.255 211.138 139 224.393 139Z" fill="#F2F2F2"/>
<path d="M365.393 48C378.648 48 389.393 37.2548 389.393 24C389.393 10.7452 378.648 0 365.393 0C352.138 0 341.393 10.7452 341.393 24C341.393 37.2548 352.138 48 365.393 48Z" fill="#F2F2F2"/>
<path d="M453.393 150C466.648 150 477.393 139.255 477.393 126C477.393 112.745 466.648 102 453.393 102C440.138 102 429.393 112.745 429.393 126C429.393 139.255 440.138 150 453.393 150Z" fill="#F2F2F2"/>
<path d="M334.393 268C347.648 268 358.393 257.255 358.393 244C358.393 230.745 347.648 220 334.393 220C321.138 220 310.393 230.745 310.393 244C310.393 257.255 321.138 268 334.393 268Z" fill="#F2F2F2"/>
<path d="M183.393 325C196.648 325 207.393 314.255 207.393 301C207.393 287.745 196.648 277 183.393 277C170.138 277 159.393 287.745 159.393 301C159.393 314.255 170.138 325 183.393 325Z" fill="#F2F2F2"/>
<path d="M343.393 414C356.648 414 367.393 403.255 367.393 390C367.393 376.745 356.648 366 343.393 366C330.138 366 319.393 376.745 319.393 390C319.393 403.255 330.138 414 343.393 414Z" fill="#F2F2F2"/>
<path d="M515.393 464C528.648 464 539.393 453.255 539.393 440C539.393 426.745 528.648 416 515.393 416C502.138 416 491.393 426.745 491.393 440C491.393 453.255 502.138 464 515.393 464Z" fill="#F2F2F2"/>
<path d="M716.393 453C729.648 453 740.393 442.255 740.393 429C740.393 415.745 729.648 405 716.393 405C703.138 405 692.393 415.745 692.393 429C692.393 442.255 703.138 453 716.393 453Z" fill="#F2F2F2"/>
<path d="M358.465 68.0034C286.573 68.5112 227.709 126.933 226.688 198.82C226.678 199.483 226.674 204.15 226.675 210.254C226.675 219.203 230.23 227.786 236.558 234.115C242.886 240.443 251.469 243.999 260.419 244H260.419C264.855 243.999 269.248 243.124 273.346 241.425C277.444 239.725 281.167 237.235 284.302 234.096C287.437 230.958 289.924 227.232 291.618 223.132C293.313 219.032 294.184 214.639 294.18 210.202C294.176 206.05 294.174 203.176 294.174 203C294.172 191.89 297.062 180.971 302.559 171.316C308.057 161.662 315.973 153.605 325.529 147.938C335.085 142.271 345.952 139.189 357.06 138.996C368.168 138.803 379.136 141.504 388.883 146.835C398.631 152.166 406.823 159.942 412.653 169.399C418.484 178.856 421.752 189.668 422.137 200.771C422.521 211.875 420.009 222.887 414.846 232.725C409.684 242.562 402.05 250.887 392.695 256.879L392.706 256.894C392.706 256.894 344.678 287.813 330.035 330.229L330.048 330.232C327.473 338.921 326.168 347.937 326.174 357C326.174 360.725 326.393 393.321 326.817 419.778C326.965 428.906 330.696 437.61 337.204 444.013C343.713 450.415 352.477 454.002 361.607 454H361.607C366.194 454 370.737 453.092 374.972 451.33C379.207 449.568 383.053 446.986 386.286 443.732C389.52 440.478 392.078 436.617 393.814 432.371C395.55 428.124 396.429 423.577 396.401 418.989C396.254 394.76 396.174 366.548 396.174 364.5C396.174 338.455 421.3 312.505 441.938 295.583C465.704 276.096 482.806 249.54 489.675 219.583C491.195 213.416 492.033 207.1 492.174 200.75C492.174 183.236 488.709 165.896 481.977 149.727C475.246 133.559 465.382 118.882 452.953 106.543C440.524 94.2039 425.777 84.4459 409.56 77.8315C393.344 71.2171 375.979 67.8769 358.465 68.0034V68.0034Z" fill="#141314"/>
<path d="M560.449 272.996C577.017 272.996 590.449 259.564 590.449 242.996C590.449 226.427 577.017 212.996 560.449 212.996C543.88 212.996 530.449 226.427 530.449 242.996C530.449 259.564 543.88 272.996 560.449 272.996Z" fill="#2F2E41"/>
<path d="M505.012 582.129H492.753L486.92 534.841H505.015L505.012 582.129Z" fill="#A0616A"/>
<path d="M483.996 578.626H507.639V593.513H469.109C469.109 591.558 469.494 589.622 470.242 587.816C470.99 586.009 472.087 584.368 473.469 582.986C474.851 581.604 476.492 580.507 478.299 579.759C480.105 579.011 482.041 578.626 483.996 578.626Z" fill="#2F2E41"/>
<path d="M600.012 582.129H587.753L581.92 534.841H600.015L600.012 582.129Z" fill="#A0616A"/>
<path d="M578.996 578.626H602.639V593.513H564.109C564.109 591.558 564.494 589.622 565.242 587.816C565.99 586.009 567.087 584.368 568.469 582.986C569.851 581.604 571.492 580.507 573.299 579.759C575.105 579.011 577.041 578.626 578.996 578.626V578.626Z" fill="#2F2E41"/>
<path d="M555.89 273.171C569.454 273.171 580.451 262.175 580.451 248.61C580.451 235.045 569.454 224.049 555.89 224.049C542.325 224.049 531.329 235.045 531.329 248.61C531.329 262.175 542.325 273.171 555.89 273.171Z" fill="#A0616A"/>
<path d="M570.529 352.406L581.519 327.156C584.188 321.232 584.953 314.627 583.708 308.25C582.463 301.874 579.27 296.04 574.569 291.556C573.603 290.601 572.578 289.71 571.499 288.886C566.076 284.644 559.394 282.332 552.509 282.316C547.88 282.334 543.309 283.35 539.109 285.296C538.749 285.456 538.399 285.626 538.039 285.796C537.349 286.126 536.669 286.486 536.009 286.856C531.704 289.328 528.04 292.777 525.313 296.925C522.586 301.073 520.872 305.804 520.309 310.736L515.459 351.376C514.239 354.566 470.719 469.766 485.939 557.716C486.101 558.655 486.559 559.518 487.246 560.178C487.934 560.838 488.814 561.262 489.759 561.386L505.189 563.486C506.316 563.64 507.459 563.361 508.389 562.707C509.318 562.052 509.965 561.069 510.199 559.956L536.089 436.546C536.25 435.779 536.664 435.089 537.264 434.585C537.864 434.081 538.616 433.792 539.399 433.766C540.182 433.739 540.951 433.976 541.584 434.438C542.217 434.901 542.676 435.562 542.889 436.316L579.469 566.096C579.73 567.039 580.292 567.87 581.071 568.463C581.849 569.055 582.801 569.376 583.779 569.376C584.071 569.374 584.362 569.347 584.649 569.296L603.499 565.666C604.595 565.461 605.574 564.854 606.246 563.964C606.918 563.075 607.233 561.966 607.129 560.856C604.359 529.966 589.639 375.236 570.529 352.406Z" fill="#2F2E41"/>
<path d="M460.439 269.05C460.269 270.51 460.421 271.99 460.884 273.385C461.347 274.78 462.111 276.057 463.121 277.125C464.131 278.193 465.363 279.027 466.73 279.567C468.097 280.108 469.566 280.342 471.034 280.253L484.763 313.246L495.148 297.851L480.518 268.881C480.206 266.426 479.004 264.171 477.14 262.542C475.276 260.914 472.879 260.026 470.404 260.047C467.929 260.068 465.548 260.996 463.711 262.655C461.875 264.314 460.71 266.59 460.439 269.05L460.439 269.05Z" fill="#A0616A"/>
<path d="M554.528 385.626C555.988 385.452 557.391 384.959 558.64 384.184C559.889 383.408 560.953 382.368 561.756 381.137C562.559 379.906 563.083 378.514 563.29 377.058C563.497 375.603 563.383 374.12 562.954 372.713L591.84 351.675L574.449 345.162L549.686 366.139C547.371 367.015 545.457 368.71 544.308 370.902C543.159 373.094 542.854 375.632 543.451 378.034C544.048 380.436 545.505 382.535 547.547 383.935C549.588 385.334 552.072 385.936 554.528 385.626V385.626Z" fill="#A0616A"/>
<path d="M507.44 335.241C506.332 335.24 505.228 335.131 504.141 334.916C501.514 334.416 499.05 333.277 496.966 331.6C494.883 329.923 493.244 327.759 492.194 325.3L472.959 301.846C472.553 301.351 472.257 300.774 472.091 300.154C471.926 299.535 471.895 298.887 472 298.254C472.105 297.622 472.344 297.019 472.701 296.486C473.058 295.954 473.525 295.503 474.07 295.166L487.755 286.695C488.26 286.382 488.822 286.173 489.409 286.078C489.996 285.984 490.595 286.007 491.173 286.145C491.751 286.284 492.296 286.535 492.776 286.885C493.256 287.236 493.662 287.677 493.97 288.185L507.527 310.519L533.488 291.333C535.555 290.249 537.943 289.945 540.216 290.476C542.488 291.008 544.494 292.339 545.866 294.227C547.238 296.115 547.885 298.434 547.689 300.76C547.493 303.085 546.467 305.263 544.798 306.894L518.886 330.531C515.841 333.549 511.727 335.242 507.44 335.241Z" fill="#2F2E41"/>
<path d="M577.59 370.513C577.555 370.513 577.519 370.513 577.484 370.512C576.853 370.497 576.232 370.349 575.662 370.079C575.092 369.808 574.584 369.421 574.173 368.942L562.007 354.749C561.593 354.265 561.285 353.7 561.106 353.089C560.926 352.478 560.879 351.836 560.966 351.205C561.053 350.575 561.272 349.969 561.611 349.43C561.949 348.891 562.398 348.429 562.927 348.076L585.709 332.888L565.07 308.076C563.87 306.074 563.429 303.708 563.83 301.408C564.23 299.109 565.444 297.03 567.25 295.552C569.057 294.074 571.334 293.295 573.667 293.358C576.001 293.421 578.233 294.32 579.958 295.893L605.041 320.406C607.015 322.209 608.522 324.465 609.433 326.979C610.343 329.493 610.63 332.191 610.269 334.84C609.907 337.489 608.909 340.012 607.358 342.19C605.807 344.368 603.751 346.138 601.366 347.346L580.865 369.1C580.444 369.546 579.936 369.902 579.373 370.145C578.81 370.388 578.203 370.513 577.59 370.513Z" fill="#2F2E41"/>
<path d="M549.645 318.214C549.45 318.214 549.255 318.202 549.061 318.177C548.214 318.074 547.414 317.73 546.756 317.186C546.098 316.642 545.61 315.921 545.35 315.108L536.208 287.079C535.979 286.37 536.014 285.603 536.307 284.918C536.6 284.233 537.131 283.678 537.802 283.354L538.099 283.214C538.368 283.086 538.634 282.96 538.906 282.839C543.169 280.862 547.81 279.831 552.509 279.816C558.61 279.827 564.574 281.619 569.67 284.973C570.354 285.427 570.831 286.132 571 286.935C571.168 287.739 571.015 288.576 570.572 289.267L553.422 316.135C553.02 316.773 552.462 317.298 551.802 317.662C551.141 318.026 550.399 318.216 549.645 318.214V318.214Z" fill="#E6E6E6"/>
<path d="M584.101 229.603C589.523 229.603 593.918 225.208 593.918 219.786C593.918 214.365 589.523 209.969 584.101 209.969C578.679 209.969 574.284 214.365 574.284 219.786C574.284 225.208 578.679 229.603 584.101 229.603Z" fill="#2F2E41"/>
<path d="M550.449 208.996C543.553 208.996 536.94 211.735 532.064 216.611C527.188 221.487 524.449 228.1 524.449 234.996V245.996H537.978L544.449 234.996L546.39 245.996H587.449L576.449 234.996C576.449 228.1 573.71 221.487 568.834 216.611C563.958 211.735 557.344 208.996 550.449 208.996V208.996Z" fill="#2F2E41"/>
<path d="M589.147 213.062C590.232 209.668 592.48 206.764 595.494 204.863C598.508 202.962 602.096 202.184 605.627 202.666C611.883 203.712 616.83 208.741 619.777 214.357C622.724 219.974 624.085 226.26 626.066 232.285C628.047 238.311 630.857 244.369 635.859 248.269C640.861 252.17 648.536 253.228 653.449 249.215C652.888 253.397 651.026 257.296 648.127 260.362C645.228 263.427 641.439 265.504 637.296 266.298C633.152 267.092 628.864 266.563 625.037 264.786C621.21 263.01 618.039 260.075 615.972 256.397C613.38 251.785 612.711 246.38 611.942 241.146C611.173 235.912 610.175 230.496 607.08 226.205C603.985 221.915 598.192 219.112 593.276 221.067L589.147 213.062Z" fill="#2F2E41"/>
<path d="M269.947 228.038C260.997 228.037 252.414 224.482 246.086 218.153C239.758 211.825 236.203 203.242 236.202 194.292C236.202 188.189 236.206 183.522 236.216 182.858C236.5 161.952 241.765 141.414 251.574 122.949C235.458 145.012 226.596 171.538 226.216 198.858C226.206 199.522 226.202 204.189 226.202 210.292C226.203 219.242 229.758 227.825 236.086 234.153C242.414 240.482 250.997 244.037 259.947 244.038V244.038C267.301 244.036 274.453 241.632 280.316 237.194C286.18 232.756 290.435 226.525 292.434 219.448C286.256 224.989 278.246 228.048 269.947 228.038V228.038Z" fill="#3F3D56"/>
<path d="M360.753 139.109C371.099 139.603 381.171 142.601 390.103 147.845C399.035 153.089 406.562 160.423 412.036 169.216C417.509 178.01 420.767 188 421.53 198.33C422.292 208.66 420.536 219.021 416.412 228.522C422.377 221.517 426.761 213.308 429.266 204.454C431.77 195.601 432.337 186.312 430.926 177.22C429.515 168.128 426.16 159.447 421.09 151.769C416.02 144.091 409.354 137.596 401.547 132.728C393.74 127.86 384.974 124.732 375.849 123.558C366.723 122.385 357.452 123.193 348.667 125.927C339.881 128.661 331.789 133.258 324.941 139.403C318.094 145.548 312.652 153.098 308.986 161.537C315.321 154.084 323.284 148.186 332.259 144.298C341.234 140.409 350.983 138.634 360.753 139.109V139.109Z" fill="#3F3D56"/>
<path d="M371.135 438.038C362.005 438.04 353.24 434.453 346.732 428.051C340.223 421.649 336.493 412.944 336.345 403.816C335.921 377.36 335.702 344.764 335.702 341.038C335.696 331.976 337.001 322.96 339.575 314.27L339.563 314.267C341.084 309.906 342.92 305.661 345.057 301.566C338.496 310.311 333.274 319.984 329.563 330.267L329.575 330.27C327.001 338.96 325.696 347.976 325.702 357.038C325.702 360.764 325.921 393.36 326.345 419.816C326.493 428.944 330.223 437.649 336.732 444.051C343.24 450.453 352.005 454.04 361.135 454.038V454.038C368.662 454.037 375.986 451.595 382.009 447.079C388.031 442.563 392.427 436.216 394.536 428.99C388.139 434.823 379.791 438.05 371.135 438.038V438.038Z" fill="#3F3D56"/>
<path d="M58.541 582.585L70.8 582.584L76.633 535.296L58.538 535.297L58.541 582.585Z" fill="#FFB8B8"/>
<path d="M94.4446 593.967L55.9139 593.969L55.9133 579.082L79.5571 579.081C83.5054 579.081 87.292 580.649 90.0839 583.441C92.8758 586.233 94.4445 590.019 94.4446 593.967V593.967L94.4446 593.967Z" fill="#2F2E41"/>
<path d="M14.541 582.585L26.8 582.584L32.633 535.296L14.538 535.297L14.541 582.585Z" fill="#FFB8B8"/>
<path d="M50.4446 593.967L11.9139 593.969L11.9133 579.082L35.5571 579.081C39.5054 579.081 43.292 580.649 46.0839 583.441C48.8758 586.233 50.4445 590.019 50.4446 593.967V593.967L50.4446 593.967Z" fill="#2F2E41"/>
<path d="M25.2543 568.041L13.2793 567.412C12.6618 567.379 12.0569 567.224 11.4996 566.957C10.9423 566.689 10.4438 566.313 10.0328 565.851C9.62182 565.389 9.30662 564.85 9.10543 564.265C8.90424 563.68 8.82109 563.062 8.86077 562.445L23.1734 403.979L89.0844 421.764L95.4347 420.032L75.5764 560.317C75.4072 561.372 74.8831 562.338 74.0908 563.055C73.2984 563.772 72.2851 564.198 71.2182 564.261L58.3093 564.863C57.6638 564.898 57.0179 564.8 56.4125 564.574C55.807 564.347 55.255 563.997 54.7916 563.547C54.3281 563.096 53.9632 562.554 53.7198 561.955C53.4765 561.356 53.36 560.713 53.3778 560.067L55.7168 475.871C55.7277 475.481 55.5925 475.102 55.3377 474.807C55.0828 474.513 54.7269 474.325 54.34 474.279C53.9532 474.234 53.5634 474.335 53.2476 474.563C52.9317 474.791 52.7127 475.129 52.6336 475.511L30.0767 564.323C29.8638 565.377 29.292 566.324 28.4588 567.003C27.6256 567.683 26.5826 568.052 25.5075 568.049C25.4237 568.049 25.3392 568.047 25.2543 568.041Z" fill="#2F2E41"/>
<path d="M60.742 274.32C74.3067 274.32 85.303 263.323 85.303 249.759C85.303 236.194 74.3067 225.198 60.742 225.198C47.1773 225.198 36.181 236.194 36.181 249.759C36.181 263.323 47.1773 274.32 60.742 274.32Z" fill="#FFB8B8"/>
<path d="M19.8496 321.918L22.5502 380.185L23.5264 401.384C23.5654 402.307 23.8787 403.197 24.4263 403.941C24.974 404.684 25.7311 405.248 26.6008 405.559L89.9368 428.502C90.4484 428.693 90.9905 428.788 91.5363 428.783C92.1602 428.786 92.7782 428.663 93.3536 428.422C93.9289 428.181 94.4498 427.826 94.8851 427.379C95.3204 426.933 95.6612 426.402 95.8871 425.821C96.113 425.239 96.2194 424.618 96.2 423.995L93.6034 319.228C93.4328 310.632 90.2687 302.365 84.6565 295.853C79.0444 289.34 71.3358 284.989 62.8597 283.551C62.2471 283.457 61.6238 283.364 61.0005 283.28C55.7446 282.628 50.4096 283.135 45.3709 284.766C40.3321 286.398 35.712 289.113 31.8355 292.722C27.8215 296.414 24.6675 300.942 22.5963 305.987C20.5252 311.032 19.5875 316.47 19.8496 321.918L19.8496 321.918Z" fill="#CCCCCC"/>
<path d="M120.192 416.876C118.694 416.411 117.326 415.602 116.196 414.515C115.066 413.427 114.205 412.09 113.684 410.611C113.162 409.132 112.994 407.551 113.192 405.995C113.389 404.439 113.948 402.951 114.823 401.649L93.3455 373.089L111.88 371.942L129.434 399.239C131.313 400.692 132.621 402.76 133.128 405.081C133.635 407.402 133.308 409.827 132.206 411.931C131.103 414.035 129.295 415.684 127.098 416.588C124.901 417.492 122.457 417.594 120.192 416.876H120.192Z" fill="#FFB8B8"/>
<path d="M105.091 396.481C104.522 396.25 104.004 395.909 103.568 395.476C103.132 395.044 102.786 394.529 102.55 393.962L70.1917 316.868C69.5568 315.359 69.2255 313.739 69.2169 312.101C69.2083 310.464 69.5224 308.841 70.1414 307.325C70.7603 305.809 71.672 304.429 72.8243 303.266C73.9765 302.102 75.3468 301.177 76.8567 300.544C78.3666 299.91 79.9866 299.58 81.6241 299.572C83.2617 299.565 84.8846 299.881 86.4001 300.501C87.9157 301.121 89.2942 302.034 90.4568 303.187C91.6195 304.34 92.5435 305.711 93.1761 307.221L125.534 384.317C126.013 385.46 126.018 386.746 125.549 387.893C125.08 389.04 124.176 389.954 123.034 390.435L108.668 396.464C108.103 396.703 107.495 396.828 106.881 396.831C106.267 396.834 105.659 396.715 105.091 396.481L105.091 396.481Z" fill="#CCCCCC"/>
<path d="M52.8454 393.762L83.9247 334.253C84.524 333.108 85.5528 332.248 86.7855 331.862C88.0181 331.475 89.3538 331.593 90.4996 332.189L135.611 355.749C136.756 356.349 137.616 357.378 138.002 358.61C138.389 359.843 138.271 361.179 137.675 362.324L106.595 421.833C105.996 422.978 104.967 423.838 103.734 424.225C102.502 424.611 101.166 424.493 100.02 423.897L54.9089 400.337C53.7644 399.737 52.9044 398.708 52.5176 397.476C52.1308 396.243 52.2487 394.907 52.8454 393.762Z" fill="#3F3D56"/>
<path d="M73.6883 366.574C73.1358 365.106 72.2478 363.787 71.0952 362.723C69.9426 361.66 68.5573 360.88 67.0499 360.447C65.5425 360.013 63.9546 359.938 62.4131 360.228C60.8715 360.517 59.419 361.163 58.1713 362.113L28.3929 342.359L28.3422 360.929L56.6281 376.841C58.1895 378.631 60.3314 379.814 62.678 380.183C65.0247 380.552 67.4263 380.083 69.4616 378.858C71.497 377.633 73.036 375.731 73.8089 373.484C74.5818 371.238 74.5391 368.791 73.6883 366.574V366.574Z" fill="#FFB8B8"/>
<path d="M36.0383 370.75L11.7015 351.472C9.06874 350.588 6.68981 349.078 4.76894 347.072C2.84808 345.067 1.44264 342.625 0.673272 339.956C-0.0960981 337.288 -0.206419 334.472 0.351785 331.752C0.909989 329.031 2.12005 326.487 3.87808 324.337L25.9752 295.377C27.5108 293.501 29.6704 292.24 32.0592 291.824C34.448 291.409 36.9065 291.867 38.9853 293.115C41.0641 294.363 42.6243 296.318 43.3807 298.621C44.1371 300.925 44.0392 303.424 43.1048 305.662L25.621 334.262L51.315 346.448C51.9124 346.732 52.443 347.139 52.8716 347.642C53.3001 348.146 53.6169 348.735 53.8011 349.37C53.9852 350.005 54.0325 350.672 53.9398 351.327C53.847 351.981 53.6164 352.609 53.2631 353.168L42.8914 369.582C42.5408 370.136 42.0777 370.61 41.5322 370.974C40.9867 371.338 40.3709 371.583 39.7247 371.693C39.699 371.698 39.6732 371.702 39.6474 371.705C39.0124 371.801 38.3645 371.766 37.7437 371.602C37.123 371.437 36.5425 371.147 36.0383 370.75V370.75Z" fill="#CCCCCC"/>
<path d="M42.183 266.205C42.0777 265.897 42.0442 265.569 42.0853 265.245C42.1264 264.922 42.241 264.613 42.4201 264.341C42.5993 264.069 42.8384 263.841 43.1191 263.676C43.3998 263.51 43.7146 263.411 44.0394 263.386C44.7046 263.422 45.3556 263.593 45.9531 263.888C46.5505 264.183 47.082 264.595 47.5155 265.101C48.4044 266.126 49.4392 267.015 50.5867 267.738C51.7748 268.337 53.3862 268.252 54.0635 267.11C54.6996 266.038 54.2637 264.602 53.8787 263.357C52.8989 260.188 52.3506 256.902 52.2488 253.587C52.1379 249.886 52.6599 246.025 54.7085 243.138C57.3524 239.414 62.0799 238 66.5539 238.102C71.0279 238.205 75.4294 239.586 79.8611 240.459C81.391 240.76 83.1893 240.914 84.2126 239.729C85.3006 238.468 84.901 236.427 84.4382 234.725C83.2373 230.307 81.9632 225.74 79.173 222.173C76.156 218.465 71.8464 216.039 67.1122 215.382C62.567 214.819 57.9531 215.343 53.6498 216.911C46.6387 219.121 40.4694 223.418 35.9669 229.229C31.3256 235.409 29.3201 243.175 30.3889 250.83C31.433 257.496 34.9656 263.519 40.2747 267.684L42.183 266.205Z" fill="#2F2E41"/>
<path d="M353.258 582.78C346.724 579.934 340.94 575.608 336.363 570.144C331.787 564.68 328.543 558.227 326.888 551.294C325.232 544.362 325.211 537.139 326.825 530.197C328.439 523.255 331.644 516.783 336.188 511.291C330.92 515.138 326.53 520.061 323.31 525.733C320.09 531.406 318.113 537.698 317.511 544.194C316.909 550.689 317.695 557.237 319.817 563.405C321.939 569.573 325.349 575.219 329.82 579.969C334.291 584.718 339.721 588.462 345.75 590.953C351.779 593.443 358.268 594.623 364.788 594.414C371.307 594.204 377.708 592.611 383.564 589.739C389.421 586.867 394.599 582.782 398.757 577.755C392.273 582.494 384.66 585.452 376.677 586.334C368.695 587.215 360.62 585.99 353.258 582.78V582.78Z" fill="#3F3D56"/>
</svg>
